<svg width="24" height="24" viewBox="0 0 24 24" fill="none" xmlns="http://www.w3.org/2000/svg">
<path d="M2.33325 12C2.33325 17.3389 6.66105 21.6667 11.9999 21.6667C17.3388 21.6667 21.6666 17.3389 21.6666 12H2.33325Z" fill="white"/>
<path d="M16.3333 12C16.3333 17.3385 15 21.6667 12 21.6667C17.3389 21.6667 21.6667 17.3385 21.6667 12H16.3333Z" fill="#D0CFCE"/>
<path d="M2.33325 12C2.33325 17.3389 6.66105 21.6667 11.9999 21.6667C17.3388 21.6667 21.6666 17.3389 21.6666 12H2.33325Z" stroke="#333333" stroke-width="2" stroke-miterlimit="10" stroke-linecap="round" stroke-linejoin="round"/>
<path d="M2.33325 8.38019L4.66659 10.7135" stroke="#333333" stroke-width="2" stroke-miterlimit="10" stroke-linecap="round" stroke-linejoin="round"/>
<path d="M9.68092 2.61517C9.71475 2.99017 9.86775 3.35637 10.1546 3.64317C10.8053 4.29357 10.8053 5.34891 10.1546 5.99994C9.50382 6.65097 9.50382 7.70631 10.1546 8.35671C10.8053 9.00711 10.8053 10.0624 10.1546 10.7135C10.8053 10.0624 10.8053 9.00711 10.1546 8.35671C9.50382 7.70631 9.50382 6.65097 10.1546 5.99994C10.8053 5.34891 10.8053 4.29357 10.1546 3.64317C9.86775 3.35637 9.71475 2.99017 9.68092 2.61517" stroke="#333333" stroke-width="2" stroke-miterlimit="10" stroke-linecap="round" stroke-linejoin="round"/>
<path d="M11.5234 2.34534C11.4899 2.81117 11.6439 3.2874 12 3.6432C12.6507 4.2936 12.6507 5.34894 12 5.99997C11.3493 6.651 11.3493 7.70634 12 8.35674C12.6507 9.00714 12.6507 10.0625 12 10.7135C12.6507 10.0625 12.6507 9.00714 12 8.35674C11.3493 7.70634 11.3493 6.651 12 5.99997C12.6507 5.34894 12.6507 4.2936 12 3.6432C11.6439 3.2874 11.4899 2.81117 11.5234 2.34534Z" stroke="#333333" stroke-width="2" stroke-miterlimit="10" stroke-linecap="round" stroke-linejoin="round"/>
<path d="M13.3369 2.42767C13.3268 2.86647 13.4863 3.30854 13.8213 3.64317C14.472 4.29357 14.472 5.34891 13.8213 5.99994C13.1706 6.65097 13.1706 7.70631 13.8213 8.35671C14.472 9.00711 14.472 10.0624 13.8213 10.7135C14.472 10.0624 14.472 9.00711 13.8213 8.35671C13.1706 7.70631 13.1706 6.65097 13.8213 5.99994C14.472 5.34891 14.472 4.29357 13.8213 3.64317C13.4863 3.30854 13.3268 2.86647 13.3369 2.42767" stroke="#333333" stroke-width="2" stroke-miterlimit="10" stroke-linecap="round" stroke-linejoin="round"/>
</svg>
